<svg width="320" height="414" viewBox="0 0 320 414" fill="none" xmlns="http://www.w3.org/2000/svg">
<rect width="320" height="414" fill="#1565D8"/>
<mask id="mask0" mask-type="alpha" maskUnits="userSpaceOnUse" x="0" y="0" width="320" height="414">
<rect width="320" height="414" fill="white"/>
</mask>
<g mask="url(#mask0)">
<path opacity="0.2" fill-rule="evenodd" clip-rule="evenodd" d="M530 880C726.613 880 886 720.613 886 524C886 327.387 726.613 168 530 168C333.387 168 174 327.387 174 524C174 720.613 333.387 880 530 880ZM530 759.933C399.698 759.933 294.067 654.302 294.067 524C294.067 393.698 399.698 288.067 530 288.067C660.302 288.067 765.933 393.698 765.933 524C765.933 654.302 660.302 759.933 530 759.933Z" fill="url(#paint0_linear)"/>
<path opacity="0.2" fill-rule="evenodd" clip-rule="evenodd" d="M-194 392C2.6134 392 162 232.613 162 36C162 -160.613 2.6134 -320 -194 -320C-390.613 -320 -550 -160.613 -550 36C-550 232.613 -390.613 392 -194 392ZM-194 271.933C-324.302 271.933 -429.933 166.302 -429.933 36C-429.933 -94.3019 -324.302 -199.933 -194 -199.933C-63.6981 -199.933 41.9326 -94.3019 41.9326 36C41.9326 166.302 -63.6981 271.933 -194 271.933Z" fill="url(#paint1_linear)"/>
<path opacity="0.15" fill-rule="evenodd" clip-rule="evenodd" d="M-579 368C-251.495 368 14 102.505 14 -225C14 -552.505 -251.495 -818 -579 -818C-906.505 -818 -1172 -552.505 -1172 -225C-1172 102.505 -906.505 368 -579 368ZM-579 168C-796.048 168 -972 -7.95209 -972 -225C-972 -442.048 -796.048 -618 -579 -618C-361.952 -618 -186 -442.048 -186 -225C-186 -7.95209 -361.952 168 -579 168Z" fill="url(#paint2_linear)"/>
<path opacity="0.15" fill-rule="evenodd" clip-rule="evenodd" d="M886 1163C1213.5 1163 1479 897.505 1479 570C1479 242.495 1213.5 -23 886 -23C558.495 -23 293 242.495 293 570C293 897.505 558.495 1163 886 1163ZM886 963C668.952 963 493 787.048 493 570C493 352.952 668.952 177 886 177C1103.05 177 1279 352.952 1279 570C1279 787.048 1103.05 963 886 963Z" fill="url(#paint3_linear)"/>
</g>
<defs>
<linearGradient id="paint0_linear" x1="685.162" y1="269.368" x2="175.898" y2="269.368" gradientUnits="userSpaceOnUse">
<stop stop-color="white"/>
<stop offset="1" stop-color="white" stop-opacity="0.01"/>
</linearGradient>
<linearGradient id="paint1_linear" x1="162" y1="-319.051" x2="-548.102" y2="-319.051" gradientUnits="userSpaceOnUse">
<stop stop-color="white" stop-opacity="0.01"/>
<stop offset="1" stop-color="white"/>
</linearGradient>
<linearGradient id="paint2_linear" x1="14" y1="-816.419" x2="-1168.84" y2="-816.419" gradientUnits="userSpaceOnUse">
<stop stop-color="white" stop-opacity="0.01"/>
<stop offset="1" stop-color="white"/>
</linearGradient>
<linearGradient id="paint3_linear" x1="1479" y1="-21.4192" x2="296.162" y2="-21.4192" gradientUnits="userSpaceOnUse">
<stop stop-color="white"/>
<stop offset="1" stop-color="white" stop-opacity="0.01"/>
</linearGradient>
</defs>
</svg>
