<svg width="768" height="402" viewBox="0 0 768 402" fill="none" xmlns="http://www.w3.org/2000/svg">
<rect width="768" height="402" fill="#1565D8"/>
<mask id="mask0" mask-type="alpha" maskUnits="userSpaceOnUse" x="0" y="0" width="768" height="402">
<rect width="768" height="402" fill="white"/>
</mask>
<g mask="url(#mask0)">
<path opacity="0.2" fill-rule="evenodd" clip-rule="evenodd" d="M931 1480C1258.5 1480 1524 1214.5 1524 887C1524 559.495 1258.5 294 931 294C603.495 294 338 559.495 338 887C338 1214.5 603.495 1480 931 1480ZM931 1280C713.952 1280 538 1104.05 538 887C538 669.952 713.952 494 931 494C1148.05 494 1324 669.952 1324 887C1324 1104.05 1148.05 1280 931 1280Z" fill="url(#paint0_linear)"/>
<path opacity="0.2" fill-rule="evenodd" clip-rule="evenodd" d="M-45 341C282.505 341 548 75.5049 548 -252C548 -579.505 282.505 -845 -45 -845C-372.505 -845 -638 -579.505 -638 -252C-638 75.5049 -372.505 341 -45 341ZM-45 141C-262.048 141 -438 -34.9521 -438 -252C-438 -469.048 -262.048 -645 -45 -645C172.048 -645 348 -469.048 348 -252C348 -34.9521 172.048 141 -45 141Z" fill="url(#paint1_linear)"/>
</g>
<defs>
<linearGradient id="paint0_linear" x1="1189.46" y1="462.851" x2="341.162" y2="462.851" gradientUnits="userSpaceOnUse">
<stop stop-color="white"/>
<stop offset="1" stop-color="white" stop-opacity="0.01"/>
</linearGradient>
<linearGradient id="paint1_linear" x1="548" y1="-843.419" x2="-634.838" y2="-843.419" gradientUnits="userSpaceOnUse">
<stop stop-color="white" stop-opacity="0.01"/>
<stop offset="1" stop-color="white"/>
</linearGradient>
</defs>
</svg>
