<svg width="70" height="62" viewBox="0 0 70 62" fill="none" xmlns="http://www.w3.org/2000/svg">
<path d="M63.4375 30.75H52.5V22C52.5 17.2148 56.3281 13.25 61.25 13.25H62.3438C64.1211 13.25 65.625 11.8828 65.625 9.96875V3.40625C65.625 1.62891 64.1211 0.125 62.3438 0.125H61.25C49.082 0.125 39.375 9.96875 39.375 22V54.8125C39.375 58.5039 42.2461 61.375 45.9375 61.375H63.4375C66.9922 61.375 70 58.5039 70 54.8125V37.3125C70 33.7578 66.9922 30.75 63.4375 30.75ZM24.0625 30.75H13.125V22C13.125 17.2148 16.9531 13.25 21.875 13.25H22.9688C24.7461 13.25 26.25 11.8828 26.25 9.96875V3.40625C26.25 1.62891 24.7461 0.125 22.9688 0.125H21.875C9.70703 0.125 0 9.96875 0 22V54.8125C0 58.5039 2.87109 61.375 6.5625 61.375H24.0625C27.6172 61.375 30.625 58.5039 30.625 54.8125V37.3125C30.625 33.7578 27.6172 30.75 24.0625 30.75Z" fill="#FAAD13"/>
</svg>
